<svg version="1.1" viewBox="0.0 0.0 324.9685039370079 633.1286089238845" fill="none" stroke="none" stroke-linecap="square" stroke-miterlimit="10" xmlns:xlink="http://www.w3.org/1999/xlink" xmlns="http://www.w3.org/2000/svg"><clipPath id="p.0"><path d="m0 0l324.9685 0l0 633.1286l-324.9685 0l0 -633.1286z" clip-rule="nonzero"/></clipPath><g clip-path="url(#p.0)"><path fill="#000000" fill-opacity="0.0" d="m0 0l324.9685 0l0 633.1286l-324.9685 0z" fill-rule="evenodd"/><path fill="#000000" d="m7.9998794 52.451443l0 0c0 -28.968132 23.48331 -52.451443 52.451447 -52.451443l209.80579 0l0 0c13.91098 0 27.252197 5.5261183 37.088745 15.362672c9.836578 9.836555 15.362671 23.177784 15.362671 37.08877l0 531.0341c0 28.96814 -23.483307 52.451477 -52.451416 52.451477l-209.80579 0c-28.968134 0 -52.451447 -23.483337 -52.451447 -52.451477z" fill-rule="evenodd"/><path stroke="#000000" stroke-width="2.0" stroke-linejoin="round" stroke-linecap="butt" d="m7.9998794 52.451443l0 0c0 -28.968132 23.48331 -52.451443 52.451447 -52.451443l209.80579 0l0 0c13.91098 0 27.252197 5.5261183 37.088745 15.362672c9.836578 9.836555 15.362671 23.177784 15.362671 37.08877l0 531.0341c0 28.96814 -23.483307 52.451477 -52.451416 52.451477l-209.80579 0c-28.968134 0 -52.451447 -23.483337 -52.451447 -52.451477z" fill-rule="evenodd"/><path fill="#a61c00" d="m16.787401 60.362206l0 0c0 -27.066303 21.941572 -49.007874 49.007874 -49.007874l196.03151 0l0 0c12.997681 0 25.463043 5.163314 34.653778 14.354074c9.190765 9.190758 14.354095 21.656105 14.354095 34.6538l0 515.21265c0 27.066284 -21.94159 49.007874 -49.007874 49.007874l-196.03151 0c-27.0663 0 -49.007874 -21.94159 -49.007874 -49.007874z" fill-rule="evenodd"/><path stroke="#000000" stroke-width="2.0" stroke-linejoin="round" stroke-linecap="butt" d="m16.787401 60.362206l0 0c0 -27.066303 21.941572 -49.007874 49.007874 -49.007874l196.03151 0l0 0c12.997681 0 25.463043 5.163314 34.653778 14.354074c9.190765 9.190758 14.354095 21.656105 14.354095 34.6538l0 515.21265c0 27.066284 -21.94159 49.007874 -49.007874 49.007874l-196.03151 0c-27.0663 0 -49.007874 -21.94159 -49.007874 -49.007874z" fill-rule="evenodd"/><path fill="#000000" d="m275.2822 31.829592l0 0c0 -5.1575565 4.1810303 -9.338583 9.338593 -9.338583l0 0c2.4767456 0 4.852051 0.9838829 6.603363 2.7352066c1.7513123 1.7513237 2.735199 4.126629 2.735199 6.6033764l0 0c0 5.1575565 -4.1810303 9.338583 -9.338562 9.338583l0 0c-5.1575623 0 -9.338593 -4.1810265 -9.338593 -9.338583z" fill-rule="evenodd"/><path stroke="#000000" stroke-width="2.0" stroke-linejoin="round" stroke-linecap="butt" d="m275.2822 31.829592l0 0c0 -5.1575565 4.1810303 -9.338583 9.338593 -9.338583l0 0c2.4767456 0 4.852051 0.9838829 6.603363 2.7352066c1.7513123 1.7513237 2.735199 4.126629 2.735199 6.6033764l0 0c0 5.1575565 -4.1810303 9.338583 -9.338562 9.338583l0 0c-5.1575623 0 -9.338593 -4.1810265 -9.338593 -9.338583z" fill-rule="evenodd"/><path fill="#ffffff" d="m282.06958 31.829592l0 0c0 -1.4089794 1.1422119 -2.5511818 2.5512085 -2.5511818l0 0c0.6766052 0 1.3255005 0.26878357 1.8039551 0.7472229c0.47842407 0.47843933 0.7472229 1.1273422 0.7472229 1.8039589l0 0c0 1.4089794 -1.1422119 2.55118 -2.551178 2.55118l0 0c-1.4089966 0 -2.5512085 -1.1422005 -2.5512085 -2.55118z" fill-rule="evenodd"/><path stroke="#000000" stroke-width="2.0" stroke-linejoin="round" stroke-linecap="butt" d="m282.06958 31.829592l0 0c0 -1.4089794 1.1422119 -2.5511818 2.5512085 -2.5511818l0 0c0.6766052 0 1.3255005 0.26878357 1.8039551 0.7472229c0.47842407 0.47843933 0.7472229 1.1273422 0.7472229 1.8039589l0 0c0 1.4089794 -1.1422119 2.55118 -2.551178 2.55118l0 0c-1.4089966 0 -2.5512085 -1.1422005 -2.5512085 -2.55118z" fill-rule="evenodd"/><path fill="#ffffff" d="m41.21916 190.09175l0 89.79207c0 16.467194 1.4232063 29.459534 4.269623 38.97705c2.8464127 9.493927 7.5989113 16.749878 14.257488 21.767761c6.658577 5.017914 15.223236 7.5268555 25.693977 7.5268555c10.775719 0 19.475914 -2.874115 26.100609 -8.622314c6.6416397 -5.771759 11.233177 -13.251495 13.77462 -22.439178c2.5414429 -9.187683 3.8121643 -21.591095 3.8121643 -37.210175l0 -89.79207l-14.791199 0l0 89.68605c0 19.506195 -2.312706 32.68701 -6.9381332 39.54245c-4.6254272 6.855438 -12.376823 10.283142 -23.254196 10.283142c-6.353607 0 -11.732994 -1.7315369 -16.138153 -5.19458c-4.3882294 -3.4630432 -7.4887886 -8.386719 -9.3016815 -14.770996c-1.7959518 -6.407837 -2.6939278 -16.361145 -2.6939278 -29.860016l0 -89.68605z" fill-rule="evenodd"/><path fill="#ffffff" d="m192.02832 206.41759c1.7281799 8.410278 4.371292 19.152817 7.929306 32.227615l11.665222 43.040833l-37.8929 0l12.275162 -45.585114c2.59227 -9.823776 4.600006 -19.718216 6.0232086 -29.683334zm-7.6243134 -16.325836l-42.924957 155.41344l15.7061 0l12.275177 -47.069275l46.737106 0l13.037598 47.069275l16.849762 0l-45.745956 -155.41344z" fill-rule="evenodd"/><path fill="#ffffff" d="m260.41852 190.09175l0 155.41344l14.791199 0l0 -155.41344z" fill-rule="evenodd"/><path stroke="#000000" stroke-width="1.0" stroke-linejoin="round" stroke-linecap="butt" d="m41.21916 190.09175l0 89.79207c0 16.467194 1.4232063 29.459534 4.269623 38.97705c2.8464127 9.493927 7.5989113 16.749878 14.257488 21.767761c6.658577 5.017914 15.223236 7.5268555 25.693977 7.5268555c10.775719 0 19.475914 -2.874115 26.100609 -8.622314c6.6416397 -5.771759 11.233177 -13.251495 13.77462 -22.439178c2.5414429 -9.187683 3.8121643 -21.591095 3.8121643 -37.210175l0 -89.79207l-14.791199 0l0 89.68605c0 19.506195 -2.312706 32.68701 -6.9381332 39.54245c-4.6254272 6.855438 -12.376823 10.283142 -23.254196 10.283142c-6.353607 0 -11.732994 -1.7315369 -16.138153 -5.19458c-4.3882294 -3.4630432 -7.4887886 -8.386719 -9.3016815 -14.770996c-1.7959518 -6.407837 -2.6939278 -16.361145 -2.6939278 -29.860016l0 -89.68605z" fill-rule="evenodd"/><path stroke="#000000" stroke-width="1.0" stroke-linejoin="round" stroke-linecap="butt" d="m192.02832 206.41759c1.7281799 8.410278 4.371292 19.152817 7.929306 32.227615l11.665222 43.040833l-37.8929 0l12.275162 -45.585114c2.59227 -9.823776 4.600006 -19.718216 6.0232086 -29.683334zm-7.6243134 -16.325836l-42.924957 155.41344l15.7061 0l12.275177 -47.069275l46.737106 0l13.037598 47.069275l16.849762 0l-45.745956 -155.41344z" fill-rule="evenodd"/><path stroke="#000000" stroke-width="1.0" stroke-linejoin="round" stroke-linecap="butt" d="m260.41852 190.09175l0 155.41344l14.791199 0l0 -155.41344z" fill-rule="evenodd"/><path fill="#000000" fill-opacity="0.0" d="m50.170605 348.1496l234.04723 0l0 158.04724l-234.04723 0z" fill-rule="evenodd"/><path fill="#ffffff" d="m63.920605 418.5896l0 -45.8125l9.124996 0l10.84375 32.4375q1.5 4.53125 2.1875 6.78125q0.78125 -2.5 2.4375 -7.34375l10.96875 -31.875l8.15625 0l0 45.8125l-5.84375 0l0 -38.34375l-13.3125 38.34375l-5.46875 0l-13.25 -39.0l0 39.0l-5.843746 0zm50.687496 -16.59375q0 -9.21875 5.125 -13.65625q4.28125 -3.6875 10.437508 -3.6875q6.84375 0 11.1875 4.484375q4.34375 4.484375 4.34375 12.390625q0 6.40625 -1.921875 10.078125q-1.921875 3.671875 -5.59375 5.703125q-3.671875 2.03125 -8.015625 2.03125q-6.9687576 0 -11.265633 -4.46875q-4.296875 -4.46875 -4.296875 -12.875zm5.78125 0q0 6.375 2.78125 9.546875q2.78125 3.171875 7.0000076 3.171875q4.1875 0 6.96875 -3.1875q2.78125 -3.1875 2.78125 -9.71875q0 -6.15625 -2.796875 -9.328125q-2.796875 -3.171875 -6.953125 -3.171875q-4.2187576 0 -7.0000076 3.15625q-2.78125 3.15625 -2.78125 9.53125zm37.093758 16.59375l-5.21875 0l0 -45.8125l5.625 0l0 16.34375q3.5625 -4.46875 9.09375 -4.46875q3.0625 0 5.796875 1.234375q2.734375 1.234375 4.5 3.46875q1.765625 2.234375 2.765625 5.390625q1.0 3.15625 1.0 6.75q0 8.53125 -4.21875 13.1875q-4.21875 4.65625 -10.125 4.65625q-5.875 0 -9.21875 -4.90625l0 4.15625zm-0.0625 -16.84375q0 5.96875 1.625 8.625q2.65625 4.34375 7.1875 4.34375q3.6875 0 6.375 -3.203125q2.6875 -3.203125 2.6875 -9.546875q0 -6.5 -2.578125 -9.59375q-2.578125 -3.09375 -6.234375 -3.09375q-3.6875 0 -6.375 3.203125q-2.6875 3.203125 -2.6875 9.265625zm30.5 -22.5l0 -6.46875l5.625 0l0 6.46875l-5.625 0zm0 39.34375l0 -33.1875l5.625 0l0 33.1875l-5.625 0zm14.0625 0l0 -45.8125l5.625 0l0 45.8125l-5.625 0zm37.0625 -10.6875l5.8125 0.71875q-1.375 5.09375 -5.09375 7.90625q-3.71875 2.8125 -9.5 2.8125q-7.28125 0 -11.546875 -4.484375q-4.265625 -4.484375 -4.265625 -12.578125q0 -8.375 4.3125 -13.0q4.3125 -4.625 11.1875 -4.625q6.65625 0 10.875 4.53125q4.21875 4.53125 4.21875 12.75q0 0.5 -0.03125 1.5l-24.75 0q0.3125 5.46875 3.09375 8.375q2.78125 2.90625 6.9375 2.90625q3.09375 0 5.28125 -1.625q2.1875 -1.625 3.46875 -5.1875zm-18.46875 -9.09375l18.53125 0q-0.375 -4.1875 -2.125 -6.28125q-2.6875 -3.25 -6.96875 -3.25q-3.875 0 -6.515625 2.59375q-2.640625 2.59375 -2.921875 6.9375z" fill-rule="nonzero"/><path fill="#000000" d="m3.7979002 82.64304l5.1023626 0l0 94.64567l-5.1023626 0z" fill-rule="evenodd"/><path stroke="#000000" stroke-width="1.0" stroke-linejoin="round" stroke-linecap="butt" d="m3.7979002 82.64304l5.1023626 0l0 94.64567l-5.1023626 0z" fill-rule="evenodd"/><path fill="#000000" d="m3.7979002 203.89502l5.1023626 0l0 46.23622l-5.1023626 0z" fill-rule="evenodd"/><path stroke="#000000" stroke-width="1.0" stroke-linejoin="round" stroke-linecap="butt" d="m3.7979002 203.89502l5.1023626 0l0 46.23622l-5.1023626 0z" fill-rule="evenodd"/></g></svg>